<svg xmlns="http://www.w3.org/2000/svg" viewBox="30 0 1000 670.97" preserveAspectRatio="none">
  <defs>
    <style>
      .cls-1 {
        fill: #d5cdca;
      }

      .cls-2 {
        fill: #d58fcc;
      }

      .cls-3 {
        fill: #d38fce;
      }

      .cls-4 {
        fill: #c6c8dc;
      }

      .cls-5 {
        fill: #ead4e1;
      }

      .cls-6 {
        fill: #e6d9e2;
      }

      .cls-7 {
        fill: #b6b7cf;
      }

      .cls-8 {
        fill: #b4b6d0;
      }

      .cls-9 {
        fill: #d3d3d1;
      }

      .cls-10 {
        fill: #d4d4d4;
      }

      .cls-11 {
        fill: #090a07;
      }

      .cls-12 {
        fill: #7e362a;
      }

      .cls-13 {
        fill: #501414;
      }

      .cls-14 {
        fill: #d2d6d3;
      }

      .cls-15 {
        fill: #823c17;
      }
    </style>
  </defs>
  <g id="Layer_2" data-name="Layer 2">
    <g id="Clouds">
      <path class="cls-1"
        d="M20.93,314.69c1.64-.19,3.08,8,11,11,1.08.42,7,2.69,12,0,6-3.23,6.56-11.39,12-12,1.66-.18,2.07.52,3,0,3.31-1.82-1.61-10.77,1-19,2.29-7.2,9.86-12.25,16-14,10.88-3.09,17.72,4,25-1,3.87-2.67,3.16-5.53,7-7s8.32.66,17,5c7.7,3.86,11.58,5.87,13,10,.94,2.72.31,4.74,2,6,2.51,1.87,5.55-1.29,9,0,5,1.9,5.16,11.12,7,11,1.51-.09.43-6.21,4-10,5.43-5.74,17.49-1.81,18-4,.26-1.07-2.72-1.81-6-5-3.43-3.34-7.4-9.6-6-15,1.21-4.62,5.62-5.74,5-8-.69-2.53-6.13-.67-12-4-6.21-3.52-5.09-8.42-14-16-3.46-2.94-3.7-2.26-5-4-4.64-6.2-4.17-18.41,2-25,3.06-3.25,6.85-4.42,8-9a9.68,9.68,0,0,0,0-5c-1.21-4.4-5-4.64-7-8s.29-5.31,3-19c1.77-8.87,1.41-11.1,4-14,2.82-3.14,5.21-2.73,7-6,2.21-4-.29-6.73,1-11,2-6.55,10.68-9.27,13-10,8.15-2.55,18.91-1.26,25,5,4.21,4.33,3.09,7.83,8,11,5.14,3.33,8.4.82,12,4,5.38,4.75,3.24,14.83,5,15,1.44.14,1.49-6.6,6-9,4-2.12,8,1.09,10-1,1.73-1.77-.49-4.79-1-10-.86-9,4.61-11.49,5-21,.3-7.13-2.73-7.14-3-14-.4-10.23,5.83-23,16-28,9.86-4.78,16.74,1.07,24-5,4.07-3.39,4.51-7.39,7-15a156.47,156.47,0,0,1,14-29c12.28-20.23,39.09-35.75,52-29,7.46,3.91,7.21,13.63,13,14,7.43.48,8.57-15.44,20-19,10.72-3.32,24.63,6,35,13,7.76,5.22,9.22,7.88,15,9,10.19,2,15.37-4.37,22-1,3.05,1.56,5.08,6.39,9,16,4.76,11.64,7.13,17.46,7,23-.22,9.59-4.72,11.64-3,20,1.31,6.35,4.25,6.88,4,12-.31,6.56-5.23,7.45-6,15-.57,5.67,1.93,7.71,0,11-2.27,3.88-6.8,2.88-8,6-1.37,3.6,3.09,9,7,12,6.54,5.07,12.29,4.17,18,6,15.22,4.89,21.83,21.15,21,26a5.22,5.22,0,0,0,0,2c.72,3.4,4.86,4.08,7,6,4,3.59.62,11.08-1,29-1,10.69-.31,14.13,2,16s4.87,1.35,9,1c14.39-1.19,21.58-1.78,26,1,6.81,4.29,3.2,12,13,21,3.74,3.45,5,3,7,6,5.18,7.72-.15,14.87,4,19s10-1.8,20,2c6.52,2.48,6,5.69,13,8,7.86,2.6,10.39-.82,15,2,6.87,4.2,4.13,13.5,10,16,4.58,1.95,7-3.36,16-3,2.32.1,2,.44,14,4,10.05,3,10.46,2.81,12,4,5.64,4.34,4.07,9.67,9,12,3.91,1.85,9.69.77,11-2,2.18-4.59-9-11.56-7-16,1.82-3.92,10.86.94,20-5,4.6-3,6.21-6.74,11-7,2.35-.12,4.11.67,7,2,7.45,3.45,8.11,6.47,12,8,7.1,2.8,10.62-5,21-5,8.1,0,8.28,4.73,22,9a59.91,59.91,0,0,0,22,3c6.05-.35,13.08-.76,20-5,9.79-6,8.64-13.06,20-20,3.18-1.94,6.12-3,12-5a131.56,131.56,0,0,1,27-6c15.38-1.94,23.07-2.91,28-1,11.86,4.6,10.88,14.12,24,19,9.59,3.57,11.42-1,19,3,10.4,5.53,7.36,14.38,20,23,4.23,2.89,8.18,4.36,10,9,1.73,4.39-.21,7.11,2,10,3.06,4,10.18,3.29,13,3,1.54-.15,11.8-1.19,17-9,3.26-4.88,2-8.59,3-17,1.27-10.55,5.57-23.83,8-24,11.84-.79,76.18,301.94,0,336a36.87,36.87,0,0,1-17,3c-65.55-2.14-745.82-17.07-901,16-14.05,3-77.09,17.75-85,1-2.05-4.35.31-9.39,1-11C41.91,578.56,11.65,315.78,20.93,314.69Z" />
      <path class="cls-2"
        d="M235.93,156.69c-3.5-2.65-11.59.09-14,5-1.8,3.69.08,7.59-1,8-1.3.5-3.28-5.49-9-10-4.49-3.54-11.42-6.27-14-4-3,2.63,1.43,10.47-1,12-2.12,1.34-5.68-4.52-12-5-7.6-.57-14.86,6.95-14,9,.94,2.21,11.26-2.05,14,2,1.88,2.77-1.93,6.24,0,10s6.8,2.24,10,6c3.86,4.53,2.91,13.89-1,16-3.29,1.79-6.37-2.85-16-5-8.77-1.95-16.81-.44-17,1s6.44,1.27,9,6c2.1,3.86-.92,6.43,1,12,1.63,4.71,4.28,4.32,5,8,1.19,6.07-5.54,9.42-4,14,1.29,3.82,6.3,2.56,9,7,3.33,5.47-2.1,10.91,1,15,2.84,3.75,11.67,4.9,16,0,3.2-3.61,2.25-8.87,2-10-1.15-5.27-4.77-6.29-9-12-2.24-3-8.26-11.14-6-19,1.9-6.56,9.35-12.12,15-11,6.66,1.32,9.57,11.62,11,11,.83-.35-.05-3.82-1-9-1.56-8.52-2.34-12.78-2-16,.78-7.34,6.35-16,13-17,7-1,11.13,7,15,5,2.69-1.4,2.46-7.6,2-20C237.7,159.26,237.24,157.68,235.93,156.69Z" />
      <path class="cls-3"
        d="M241.93,123.69c.32-11.68,3.28-15.61,6-17,1.54-.78,2.8-.64,4-2,2.69-3-.4-7.18,1-12,1.68-5.76,8.62-8.46,10-9,8.81-3.42,15.07,1.93,19-2,2.92-2.9.5-6.86,4-10,3.23-2.89,6.52-.65,9-3,3.92-3.7-1.77-11.6,0-20,1.15-5.42,5.14-9.8,15-16,18.25-11.45,33.47-21,57-22,7.24-.3,45.09-1.88,68,25,5.08,6,9.05,16.3,17,37,1.38,3.58,4.62,12.29,1,16-2.09,2.15-5.86,2-7,5-.89,2.36.56,4.74,0,5-1,.47-4.43-7.5-7-7-1.9.38-1.26,5-5,11-2,3.15-2.82,3-4,5-3.59,6.23,1.85,12.56,2,20,.24,11.81-12.84,26.09-22,24-5-1.13-3.06-9.23-12-24-4.82-8-7.23-11.94-12-14-9.3-4-17,3.19-24-2-3.87-2.85-2.42-5.69-7-9-5.48-4-9.45-1.25-15-4-7.57-3.75-5.51-11.47-12-18-10.73-10.79-33.5-6.86-34-4-.29,1.71,7,4.7,12,6,6.55,1.7,7.82.15,12,2,7.52,3.32,10.46,11.41,11,13,1.32,3.89,1.2,7.06,1,12-.29,7.51.11,11.3-2,13-2.59,2.1-5.05-.53-10,1-6.64,2.07-8,8.62-11,8-2.75-.55-1.67-6-6-12-.49-.68-5.8-7.87-14-9-5.91-.81-7.67,2.32-14,1-4.86-1-5.92-3.29-9-4C259.75,106.73,253,109,241.93,123.69Z" />
      <path class="cls-3"
        d="M454.93,138.69c1.53-.72,2.81-.1,11,3,7.91,3,7.47,2.7,8,3,8.87,5.15,11.59,19.41,9,21-2,1.25-7.23-5.3-9-4s3.05,6.88,2,14c-1.12,7.63-8.43,14.11-12,13-2.7-.83-1.77-5.56-6-8-3.2-1.84-5.64-.22-7-2-2.07-2.72,3-7.46,1-11-1.75-3.13-6.82-1.36-9-5-1.6-2.68-.34-6.15,0-7,1.46-3.58,4-3.29,7-7C453.82,143.84,452,140.1,454.93,138.69Z" />
      <path class="cls-4"
        d="M408.93,248.69c1.81-2.37,11.22,1.15,18,5,16.42,9.33,19.55,21.82,28,21,5.85-.56,6.06-6.69,14-8a19.3,19.3,0,0,1,16,5c5.29,5.18,2.55,9.79,7,16,5.51,7.68,13.42,5.85,21,11,10.17,6.91,11.67,20.67,13,32,1.2,10.11,4.9,41.51-15,55-13.74,9.33-31.67,5.32-33,5-8.69-2.06-8.51-5.17-19-8-15.39-4.15-28.2-.8-29-4-.54-2.2,5.43-4.18,5-7-.75-5-20.19-4.18-21-9-.57-3.47,9.23-5.74,9-10s-9.68-4.83-26-13c-10-5-9.24-6.14-15-8-10.33-3.33-15-.35-28-1-14.91-.73-29.21-5.64-29-8,.2-2.2,13.14-3.07,22-3,27.62.24,48.71,10,50,7,.81-1.83-6.85-6.55-6-8,.76-1.27,6.62,2.64,13,2,9.71-1,15.93-12,17-14,8.56-15.91.27-35.21-2-40C413.91,256.1,407.25,250.92,408.93,248.69Z" />
      <path class="cls-3"
        d="M413.93,182.69c-1.74,9.65,8.79,13,10,24,1.05,9.51-6.23,12-4,22a25,25,0,0,0,7,12c2,2,6.87,6.81,13,7,7.18.23,9.15-6.09,18-11s21.83-6.81,33-2c1.29.56,15.6,7,19,20,2.08,8-1.25,13.25,3,18,4,4.45,8.44,1.58,12,6,4.41,5.47,2.74,16.25,2,21-.6,3.91-1.51,6.71,0,8,2.06,1.76,5.71-1.74,10,0,3.61,1.47,3.72,5,6,5s3.05-3.23,7-9c4.35-6.33,5.5-5.66,7-9,2.07-4.58,2.68-12.07-1-17-5.18-6.94-15-3.49-18-10-2-4.23.92-8.4-2-11-2.32-2.07-5.06-.2-7-2-3.23-3,2.51-9.91,1-17-1.71-8-11.86-12-22-16-.95-.37-23.82-9.15-29-2-1.37,1.9-1.19,4.5-3,5-2,.57-3.41-2.4-8-4-3.23-1.12-4.25-.23-6-1-4.85-2.11-3.14-11.68-5-19-4.49-17.69-31.83-30.11-40-24C414.72,178.36,414.21,181.16,413.93,182.69Z" />
      <path class="cls-3"
        d="M461.93,356.69c-.24-5.17,9.38-5.25,15-15,2.95-5.1,1.93-7.88,6-12,3.23-3.25,5.31-3,7-6,3-5.27-.39-11.45,1-12,1-.39,3.62,2.52,5,6,2.22,5.57.45,10.44,2,11,1.14.42,2.9-1.86,3-2,3.78-5-.1-11.5,2-13,2.47-1.75,10.66,5.17,16,11,5.53,6,9.78,10.67,11,18,1.62,9.7-2.75,20-6,20s-5.24-9.42-7-9,.92,9-3,12c-3.09,2.35-8.86.15-12-2-3.82-2.61-3.13-5.72-6-8-5.69-4.51-15.56-.18-16,0-6.66,2.88-7.94,7.56-12,7C465.11,362.31,462.07,359.54,461.93,356.69Z" />
      <path class="cls-3"
        d="M670.93,343.69c-2.81,1.4-8-11.37-19-12-4.76-.27-9.74,1.8-10,4-.33,2.92,7.86,3.86,11,11,1.31,3,1.94,7.44,0,9-2.25,1.82-6.77-1.29-15-5-1.82-.82-11.72-5.28-20-7-12.71-2.64-27.79-.11-29,5-1.07,4.54,9.21,9.39,8,12-1.48,3.23-16.59-5.51-29,0-11.14,4.95-19.25,21-14,30,2.75,4.69,9.44,7.94,15,7s6.22-5.32,13-7c.45-.11,9.22-2.17,13,2,3.37,3.72.74,10.13-2,21-4.72,18.76-7.22,22.94-5,29,2.53,6.87,8.71,10.29,10,11,6.76,3.74,13.52,2.83,19,2,12.13-1.81,13.73-6.24,24-9,13.67-3.66,15.18,3,32,1,17.58-2.08,21-9.95,32-7,9.86,2.66,14.5,11,18,9,4.22-2.41-.12-15.85,3-17,2.73-1,7.08,8.85,11,8,4.73-1,3.6-16.42,7-17,3.85-.65,4.93,19.14,18,28,13.63,9.24,33.7,2.13,39,0,17.74-7.13,16.17-17.23,35-26,15-7,29.83-7,38-7,16.53,0,18.38,3.87,34,3,16.92-.93,17.78-5.65,32-6,16.5-.4,21.48,5.79,39,9,10,1.85,39.09,7.53,44-2,1.38-2.66.41-5.63,0-7-8.54-28.6,13.63-68.87,0-79-3.7-2.75-5.14.38-29,2-18.46,1.26-35.33.59-36-3-.29-1.58,2.85-2.32,3-5,.25-4.22-7.18-9.59-15-11-10.52-1.89-17.29,4.2-22,0-1.57-1.4-2.7-3.75-2-5,1.46-2.58,9.65,1.79,13-1,4.41-3.66-.52-16.47-4-23a51.87,51.87,0,0,0-9-12c-4.78-5-11.26-11.82-21-14-3.9-.87-7-.7-13,0-25.71,3-38.56,4.56-45,11-7,7-7.11,14.89-15,17-2.72.73-6.59.84-10,4-2.9,2.71-1.88,4.31-4,6-4.85,3.89-11.95-3.11-25-2-6.19.53-5.35,2.18-10,2-10.81-.4-17.68-9.43-21-7-1.64,1.21-.29,3.69-2,5-3,2.3-8.66-4-17-6-10.92-2.57-13,5.53-25,4-11-1.4-15.91-9.1-23-6-.49.22-3.93,1.77-4,4-.11,4,10.89,5.58,11,10,.06,2.26-2.76,4-6,6-2.33,1.44-8.47,5.23-12,3-2.33-1.47-1.37-4.23-3-8-3-7-13.26-13.55-20-10-5.15,2.72-7.61,11-5,16,2.43,4.63,7.55,3.18,13,8C673,328.81,673.61,342.37,670.93,343.69Z" />
      <path class="cls-5"
        d="M307.93,130.69c-.33-1.53,10.69-6.34,23-8,7.85-1,17.65-2.37,28,2,7.85,3.32,5.35,5.4,26,22,4.73,3.8,7,5.39,9,9,4.35,7.74,1,12.88,5,19,3.81,5.88,8.28,3.32,15,9,9.58,8.09,14.57,25.15,9,35-2.54,4.51-6.69,6.43-6,10s4.8,3.37,8,8c3.7,5.34,3.74,13.39,1,15-2.29,1.36-4.65-2.91-12-4-5.33-.78-6.61,1.1-11,0-5.43-1.35-6-4.89-10-7-9.88-5.25-19.5,9.61-32,6-5.44-1.57-9.63-6.38-18-16-4.34-5-5.83-7.73-10-10-7.67-4.17-15.21.93-17-2-1.5-2.45,2.18-7.91,6-11a23.11,23.11,0,0,1,23-3c6.94,3.11,6.43,7.82,14,11,4.18,1.76,12.05,3.57,16,0,5.27-4.75,3.64-19.09-4-27-13-13.48-39.25-3.88-43-14-1.18-3.19.62-6.33,1-7,4.37-7.63,20.63-8.68,32-3,10.28,5.14,13.45,14.2,16,13s2.58-11.87-3-19-12.64-5.8-16-13c-2.41-5.16.48-7.46-2-11s-7.3-4.29-26-4C313.62,131,308.16,131.74,307.93,130.69Z" />
      <path class="cls-5"
        d="M460.93,235.69c-.06-2.43,14.77-8.44,28-3,12.49,5.14,17.64,18.05,18,19,3.84,10-.05,15.28,5,21,5.49,6.22,12.4,2.65,16,8,5.62,8.34-7,23.13-2,28,2.62,2.53,6.8-.68,12,1,10.3,3.35,12.36,20.41,13,25a27.46,27.46,0,0,1,0,8c-.67,4.62-2.84,11.06-5,11-2.92-.08-2.25-12-8-14-4.6-1.6-9.08,4.67-12,3-3.24-1.85-.19-11,0-17,.65-20.43-36.69-30.66-34-39,.68-2.09,2.85-1.43,5-5,2.93-4.84,2.91-12.62-1-17-3.55-4-7.7-2.2-10-6-2.45-4.06,1.37-7.63,0-12C483,237.39,461,238.64,460.93,235.69Z" />
      <path class="cls-6"
        d="M900.93,263.69c-1,2.24,7.69,9.31,15,13a65.52,65.52,0,0,1,8,4.44c4,2.65,6,4,7,5.56,3.75,6-2.54,11.76,1,19,2.05,4.18,5.57,5.17,5,7-1,3.3-12.86,1.73-13,3-.1,1,7,3.13,15,4,6.7.73,7.44-.13,11,1,6.87,2.19,13,8.23,12,12-.66,2.51-4.24,3.14-4,4,.37,1.28,7.87-1.53,17,0,7.41,1.25,7.51,3.93,13,4,7.84.11,9.56-5.33,17-6,9.61-.86,13.42,7.58,18,6,10.91-3.76,4.69-56.92,0-57-1.95,0-4.36,9.21-5,16-.92,9.94,2,13.6-1,19-2.65,4.72-7.57,6.66-11,8a28.88,28.88,0,0,1-17,1c-3-.6-5.26-1.08-7-3-2.46-2.72-.89-5-3-8-2.91-4.1-7.74-2.21-11-6-2.67-3.1-.73-5.9-2-10-3-9.88-18.36-6.67-32-19-6.9-6.24-5.71-9.53-13-14C912.41,262.48,901.88,261.53,900.93,263.69Z" />
      <path class="cls-7"
        d="M123.93,361.69c-5.64,1.71-11.52,3.5-18,8-5.18,3.61-6.43,6-11,7-5.7,1.31-7.75-1.44-14,0s-8.22,5.11-10,4c-2.43-1.51-1.82-10.32,3-14,3.91-3,7.51-.23,11-3,4.38-3.47,1-9.6,4-16,4.09-8.65,17.21-12,26-12,14.5.06,17.68,9.36,29,7,7.07-1.47,6.67-5.26,19-11,7.25-3.36,13-6,20-6,13.64.08,15.27,10.32,31,13,11.92,2,12.92-3.5,26-1,10.51,2,10.79,5.76,24,9,12.88,3.16,15.06.2,21,4,9.25,5.91,7.76,15.48,15,18,6.49,2.26,12.08-3.88,19-7,27.65-12.45,75,23.84,72,32-1.46,3.94-14.85,1.89-15,4-.11,1.7,8.45,4.14,17,5,11.07,1.12,16.62-.95,26-2,6.21-.69,30.07-3.34,48,9,7.67,5.28,13.08,12.49,12,14-1.37,1.93-13.38-5.25-15-3s8.55,9.94,7,13c-2.29,4.53-20.89,4.88-30-5-3.83-4.16-2.51-6.4-6-9-7.35-5.48-15.29,3-31,2-13-.79-14.23-7-28-7-10,0-11.66,3.25-20,4-15.18,1.38-18.79-8.66-44-19-4.34-1.78-38.61-15.51-50-4-1.23,1.26-2.12,2.72-4,3-6.09.91-9.7-12.64-21-25-5.55-6.07-15.6-17.06-29-18-12-.83-15.35,7.26-32,7-7.55-.11-6.32-1.77-18-3C148.94,358.75,137.29,357.64,123.93,361.69Z" />
      <path class="cls-7"
        d="M142.93,441.69c0-4.32,24.52-7.67,27-8,24.5-3.25,31.23,1.71,56-1,19.7-2.15,17.17-5.47,29-5,22.7.91,29.09,13,47,10,12.89-2.16,11.31-8.71,25-11,16-2.66,20.95,5.74,42,6,14.43.19,12.64-3.75,28-4,20.87-.32,36.73,6.75,46,11,12.17,5.59,23.79,13.25,23,15s-12.09-4.62-30-6c-6.33-.48-22.42-1.72-40,5-13.13,5-18,11-29,10-7.45-.68-7.54-3.64-15-5-15.1-2.75-23.25,7.83-39,11-9.25,1.87-18.25-1.31-36-6-8.77-2.31-11-3.55-21-6a257.46,257.46,0,0,0-27-5c-26.67-3.47-31.8.37-57-3C165.38,448.82,143,445.82,142.93,441.69Z" />
      <path class="cls-7"
        d="M1022.93,424.69c-5.93-5.13-15.74,3.56-33,3-13.14-.42-17.54-5.78-30-10-24-8.12-47-1.55-63,3-33.17,9.46-41.61,25.36-61,20-8.14-2.25-16.49-7.77-21-4-3,2.53-3.49,8.56-1,12,4.15,5.74,15.8,3.32,25,2,19.81-2.83,40,1.08,60,1,34.22-.12,51.33-.18,58,0,43.31,1.22,58.7,5,66-5C1027.89,439.91,1027.66,428.79,1022.93,424.69Z" />
      <path class="cls-7"
        d="M1024.93,460.69c-4.14-6.33-18.38.09-57,4-6.13.63-12,1.09-12,2,0,1.21,10.18,1.63,27,4,26.21,3.7,35,7.4,40,2C1025.76,469.65,1027.1,464,1024.93,460.69Z" />
      <path class="cls-8"
        d="M20.93,472.69c4.09-3.13,10.32-2.54,16-2,10.85,1,14.61,5.27,23,7,11.54,2.39,21.07-2.15,26-4,21.4-8,58.08-3.39,96,0,26.5,2.37,91.3,8.17,159,7,43.12-.74,46.4-3.6,76-2,51.17,2.78,65.09,14.31,106,19,43.75,5,47.61-5.13,122-11,24.94-2,18.85-.38,150,0,91,.27,136.5.4,141,0,55.05-4.85,70.66-12.34,87,0,37.34,28.22,28.05,121.93-1,133-4.62,1.77-6.53.21-20-1-28.17-2.52-42.07,2.3-65,4-27.25,2-44-2.09-66-5-52.47-6.91-65.64,2.24-226,8-53.83,1.94-81.12,2.85-99,0-14-2.23-32-6.15-57-4a182.21,182.21,0,0,0-48,11c-45.89,16.16-82.15-.5-172-1-95.08-.52-169,10-169,10-41.76,5.95-62.55,11.63-79-2-30.83-25.54-25.12-101.33,1-113,5.7-2.54,11.17-1.5,14-1,33.48,6,68.14-1.11,102,2,62.28,5.73,120.42,4.75,224,3,53.66-.9,57-2.39,57-3,.06-2.12-39.84-4.71-60-6-80.7-5.14-121.07-7.72-174-6-101.77,3.32-149.49,19.25-164-5C14.75,500.35,12.49,479.17,20.93,472.69Z" />
    </g>
    <g id="Boat">
      <path class="cls-9"
        d="M827.93,174.69c-3.58-1.2-13.07,25.64-37,68-13.81,24.46-25.87,42-50,77-27.71,40.24-46,66.87-74,101a956.21,956.21,0,0,1-80,86s-18.3,17.35-79,56a31.33,31.33,0,0,1-9,4,35,35,0,0,1-10,1c-.05.61,68.2,6.93,112,12,0,0,63.55,12.85,86,12,.43,0,7.08-.27,16,0a103.16,103.16,0,0,1,14,1,79.34,79.34,0,0,1,17,5c8,3.17,9.12,4.75,11,4,5.39-2.11,3.24-17.62,3-29-.43-20.56,5.3-31.45,12-54,8.5-28.57,7-37,23-120,10.46-54.28,21.3-103.57,26-125C823.61,206.9,831.73,176,827.93,174.69Z" />
      <path class="cls-10"
        d="M322.93,586.69c-6.92-8.07,101.36-99,177-188,125.17-147.33,178.46-310.21,190-305,2.87,1.3.67,11.83,0,15,0,0-26.43,126.51-59,298-19,99.89-28.45,149.84-28,157,.47,7.38,2.89,36.59-8,41-4.39,1.79-9.39-1.11-11-2-40.86-22.59-203.53-25.52-229-18a75.36,75.36,0,0,1-23,3C326.4,587.57,323.63,587.5,322.93,586.69Z" />
      <path class="cls-11"
        d="M303.93,594.69c.07,1.47,20.36.59,63,4,4.6.37,7.92.65,13.41,1.16,13.8,1.28,24,2.57,57.59,5.84,60.07,5.86,51.28,4.19,75,7,42.45,5,42.93,7.11,53,5,6.08-1.27,16.86-4.32,22,1,3,3.06,4.06,8.87,2,11-1.73,1.8-4.68-.07-7,2-2,1.83-2.57,5.83-1,8,1.24,1.71,3,1.15,12,2,5.72.54,6.82.94,8,0,2.2-1.72,1-5.11,1-11,.05-10.65,4.1-11.07,4-21-.07-7.28-2.28-11,0-13s6.32-.53,8,0c10.88,3.46,22.78,2,34,4,30.73,5.6,45,3.5,62,7,6.1,1.26,10.26,2.77,16,2a28.84,28.84,0,0,1,8,0c2.79.41,4.65.67,6,2,2.58,2.53,1.73,7.26,1,11-1.68,8.71-5.54,11.64-4,14s6.93,2.44,10,0c3.85-3.05,3.21-9.56,3-13-.74-12.09,4.06-23.92,5-36,1.83-23.32,8.52-76.29,24-129,.69-2.33,2.82-6.58,4-13,1-5.32.51-7,2-13,.7-2.81,1.27-4.29,2-8,.78-3.89,1.17-5.84,1-8-.37-5-3.16-10.23-5-10-1.13.15-1.7,2.35-3,9-1.83,9.42-2.74,14.12-3,17-1,11.42-5.14,22.4-9,36-10.79,38.1-13.7,76.49-18,98l-2,10c-1.07,5.36-1.83,6.64-2,10,0,0,0,.61,0,7,.64-2.34-.78,4.9-2,7-2.93,5.1-17.94,1.61-26,0-5.72-1.13-16.5-2-38-4-15.78-1.47-20.95-1.51-30-3-5.72-.94-8.38-1.71-14-2-3.44-.17-6.12-.08-10-1s-4.3-2.16-8-3c-5.33-1.2-7.35.37-9-1-2.8-2.33,0-9.51,2-16,4.87-15.4,1.14-12.28,7-34,3-11.11,5.63-18.06,5-25a36.23,36.23,0,0,1,0-8,59.14,59.14,0,0,1,2-9c1.59-5.79,1.91-5.47,2-7,.38-6-4.5-12.53-7-12-1.9.41-2,4.85-3,13-2.56,20.49-5.63,20.48-8,41-1.19,10.39-.51,11.29-2,19s-3,11.25-5,20c-1.37,6.13-1.19,9.87-3,18-.5,2.29-.63,4.87-2,8s-2.43,3.65-3,6c-1.15,4.78,2.1,7.23,1,9-2,3.35-14.84-3.16-32-5-5.94-.63-5.65,0-19,0-16.4,0-28.71-1-41-2-18.12-1.46-21.39-2.46-37-4-33-3.24-33.81-.27-64-3-29.65-2.68-32-5.83-54-6C324.54,589.51,303.86,593.21,303.93,594.69Z" />
      <path class="cls-12"
        d="M626.93,484.69c-.16.06-.37-.13-1.4-1.24l-1.6-1.76a23.64,23.64,0,0,1-3-5c-2.63-6.24,2-16,2-16,7-60,16.44-104.21,24-134,3.24-12.73,6.55-24.47,11-45,7.75-35.65,6.78-41.68,16-89,2.43-12.42,4.36-21.61,11-55,2.52-12.63,1.07-26.57,7-38,.29-.55,2.37-4.45,1-6-.81-.92-2.22-.28-3-1-1.81-1.68,2.29-8.63,4-12,7.41-14.58,3.88-28.89,6-29,1.18-.06,2.6,4.37,3,8,.64,5.71-1.46,7.2-2,15-.36,5.38.57,5.59,0,10a35.31,35.31,0,0,1-4,12c-1.38,2.88-1.25,4.09-4,25-1.17,8.93-1.76,13.42-2,15-1.4,9.34-2.67,15.32-4,22-2.88,14.57-2.37,14.17-7,40-3.06,17.09-4.55,25.66-5,27a33.28,33.28,0,0,0-2,10c0,1.19.09,2.41,0,5-.1,3.1-.3,3.4,0,4,1.07,2.1,5,1.32,10,2,6.15.84,12.18,3.61,12,5-.19,1.54-8,1.87-11,2-4.88.21-8,0-8,0-4.72-.31-6.06-1-7,0s-.13,2.64,0,9c0,0,0,1.13,0,3-.09,6.93-4,15-4,15-2.77,5.67-2.22,9.45-7,33-3.43,16.91-3.79,15.36-9,39-1.82,8.28-4.31,19.61-7,34-6.8,36.49-3.68,32.89-8,48-.28,1-7,24.46-7,34v12C627.06,481.54,627.52,484.51,626.93,484.69Z" />
      <path class="cls-13"
        d="M788.93,415.69c-.47.07-.74-1.1-2-3-1.92-2.92-3.22-3.07-4-5a7.83,7.83,0,0,1,0-5c1.85-7.29,2.78-14.81,5-22,1.73-5.58.6-3.72,4-20,2.91-13.89,3.83-15.66,8-34,2.91-12.78,2.15-10.46,5-23,4-17.49,5.13-20.48,7-31,1.52-8.49.86-7,3-20s4.36-23.86,5-27c2.54-12.3,2.81-11.9,4-19,1.36-8.09,1.39-10.95,3-18,1.55-6.75,2.39-7.93,4-14,2.28-8.54,2-11.5,4-25,1.46-10,4.19-26.09,5-26,.64.08.26,10.16-1,20-1.16,9.14-2.12,10.57-4,22-1.91,11.69-1.2,12-3,23-1.49,9.21-1.79,7.79-5,24-1,5.06-2.33,12.71-5,28-.53,3.07-1.26,7.31-2,13-.42,3.3.58,5.94-1,9-.58,1.13-1.45,2.34-1,3s1.91.17,4,0c3.63-.29,3.86.88,8,1s6.39-1,7,0c.47.76-.08,2.21-1,3-1.22,1.06-2.63.57-8,0a29.34,29.34,0,0,0-8,0,6.18,6.18,0,0,0-3,1c-1.85,1.43-1.84,4.09-2,6-.18,2.29-.25-.38-3,11-1.2,5-2.67,11.09-4,19-2.41,14.34-1.33,16.54-4,28-1.22,5.26-1.23,3.88-3,11-.62,2.54-3,12.32-5,26-.82,5.63-.69,5.88-2,15-1,7-1.68,11.1-2,13-1.7,10.09-1.72,8.08-2,11C789.71,413.08,789.62,415.59,788.93,415.69Z" />
      <path class="cls-14"
        d="M815.93,272.69c3.5-1.45,27.41,42.56,44,87,10.88,29.14,15.74,51.49,25,95,15.47,72.62,23,132.87,18,134-1.68.39-3-6.4-11-14s-16.81-10.31-26-13c0,0-23-6.73-57-1a56.72,56.72,0,0,0-11,3c-5.12,2-7.08,4.62-8,4-2.5-1.68,8-21,8-21,11.84-21.77,16.55-44.3,24-80,8.33-39.88,4.3-73.85,2-116-1.72-31.61-2.58-47.41-6-64C816.25,278.53,814.77,273.18,815.93,272.69Z" />
      <path class="cls-14"
        d="M799.93,515.69c-1.12-4,10.75-7.54,26-20,22.81-18.62,34.06-40.9,46-67,5.08-11.09,11.79-26,16-47,2.5-12.42,6.82-34.71,2-63-1.3-7.68-1-1.6-16-47-5-15.12-7.6-23.55-13-38-6.28-16.82-9.42-25.24-13-31-3.95-6.37-7.65-14.56-10-19-2-3.79-3.86-7.26-3-8,1.06-.89,5.59,2.84,7,4,37.81,31.13,111,236,111,236,3.33,9.32,8.08,22.39,13,41,13.62,51.48,17.28,102.54,11,104-2.37.56-3.7-6.56-12-15-9.88-10.05-21.71-13.9-40-18-24.27-5.43-40-9-67-10C821.73,516.31,801.39,520.83,799.93,515.69Z" />
      <path class="cls-15"
        d="M713.93,615.69c0-.16,15.47-1.47,39-4,13.35-1.43,20-2.21,25.67-2.9,8.16-1,10.25-1.35,18.33-2.1,38-3.53,81.77.55,93.38-1.44a64.11,64.11,0,0,1,8.58-.89c5.74-.33,8.76-.51,9,.33.92,2.75-18.58,11.55-33,18-20.51,9.19-32.56,14.59-49,20-15.16,5-35.27,10.42-86,17-21.15,2.75-50.48,6.5-93,9-46.49,2.74-42.37.09-135,2-7.86.17-41.94.89-70-1-5.88-.39-12.36-1-28-2-8.67-.58-17.32-1.43-26-2-5.69-.37-11.3-1.63-17-2-4.78-.31-8.46-.33-9-2-.41-1.29,1.17-3.29,3-4,2.54-1,5.31.63,6,1,4.58,2.46,14.17,2.5,34,3,67,1.7-2.54,2.22,116,3,0,0,121.21.81,146-3,2.48-.38,5.87-1.72,11-1,2.2.32,3.77.87,5,0,2.13-1.5-.9-5.66,1-8,1.53-1.87,4,0,12-1,3.28-.39,4.54-.9,6,0,2.13,1.31,1.82,3.81,4,5,1.94,1.06,4.25.24,5,0,5.46-1.71,1,4.85,54-7,31.28-7,66.11-15,110-34,2.76-1.19,9.17-2.6,9-4-.24-2.05-16.11-1.22-48-1-17.94.13-17.61-.1-29,0C757,611.17,714,616,713.93,615.69Z" />
    </g>
  </g>
</svg>