<svg xmlns="http://www.w3.org/2000/svg" viewBox="0 0 908 932"><defs><style>.cls-1{fill:#fff;}</style></defs><g id="Layer_2" data-name="Layer 2"><g id="Layer_2-2" data-name="Layer 2"><path class="cls-1" d="M165,172V932h0A165,165,0,0,1,0,767V7H0A165,165,0,0,1,165,172Z"/><path class="cls-1" d="M165,767H355.5a165,165,0,0,1,165,165H165Z"/><path class="cls-1" d="M358,0H825.5A82.5,82.5,0,0,1,908,82.5h0A82.5,82.5,0,0,1,825.5,165H358Z"/><path class="cls-1" d="M357.5,387h468A82.5,82.5,0,0,1,908,469.5h0A82.5,82.5,0,0,1,825.5,552h-468Z"/><path class="cls-1" d="M768,767h0A140,140,0,0,1,908,907v25H628V907A140,140,0,0,1,768,767Z"/></g></g></svg>