<svg xmlns="http://www.w3.org/2000/svg" viewBox="0 0 1000 1000"><defs><style>.cls-1{fill:#fff;}.cls-2{fill:#f2eaed;}.cls-3{fill:#5d5554;}.cls-4{fill:#615957;}.cls-5{fill:#887d7b;}.cls-6{fill:#615958;}.cls-7{fill:#423c39;}.cls-8{fill:#3e3836;}.cls-9{fill:#8a827b;}.cls-10{fill:#c5bcb9;}.cls-11{fill:#79706d;}.cls-12{fill:#7e7373;}.cls-13{fill:#8a7e7a;}.cls-14{fill:#695f61;}.cls-15{fill:#6b625f;}.cls-16{fill:#7b7370;}.cls-17{fill:#a99e9c;}.cls-18{fill:#998982;}.cls-19{fill:#8f8380;}.cls-20{fill:#ab9c95;}.cls-21{fill:#f8f0f3;}</style></defs><g id="Layer_2" data-name="Layer 2"><g id="Layer_2-2" data-name="Layer 2"><path class="cls-1" d="M500,0A497.7,497.7,0,0,0,202.39,98.19a85.23,85.23,0,0,1,18.11,82,132.5,132.5,0,0,1,25.86,12.13,138,138,0,1,1,126.91,213,120.37,120.37,0,0,1,7.64,22,66.36,66.36,0,0,1,58.34,2.15,66.23,66.23,0,0,1,65.25-54.92c1.73,0,3.45.07,5.15.2a68.16,68.16,0,0,1-.57-8.75,65.85,65.85,0,0,1,9.55-34.26,107.42,107.42,0,1,1,190.2,39,107.42,107.42,0,0,1,103.56,87.64A80.22,80.22,0,1,1,757.87,572.7,107.43,107.43,0,0,1,620.11,414.76a65.92,65.92,0,0,1-44.81,17.48c-1.73,0-3.45-.07-5.15-.2a66.25,66.25,0,0,1-97,67.08,66.21,66.21,0,0,1-114.88,32.53,122.5,122.5,0,0,1-39.65,32.89,71.18,71.18,0,0,1,13.61,29.56,102.11,102.11,0,1,1,1,195.88,71.35,71.35,0,1,1-71.29-74.2h.46a102.91,102.91,0,0,1-2.08-36.12,71.13,71.13,0,0,1-48.51-20.91A89.69,89.69,0,0,1,65,589.74,111.36,111.36,0,0,1,5.18,572.22C40.18,814.14,248.39,1000,500,1000c276.14,0,500-223.86,500-500S776.14,0,500,0ZM829.68,382.59A64.3,64.3,0,1,1,894,318.3,64.29,64.29,0,0,1,829.68,382.59ZM686.92,718.83a64.3,64.3,0,1,1,64.3-64.3A64.29,64.29,0,0,1,686.92,718.83Z"/><path class="cls-2" d="M751.22,654.53a64.3,64.3,0,1,1-64.3-64.29A64.3,64.3,0,0,1,751.22,654.53Z"/><path class="cls-2" d="M765.39,318.3a64.3,64.3,0,1,1,64.29,64.29A64.29,64.29,0,0,1,765.39,318.3Z"/><path class="cls-2" d="M909.82,536.78a80.22,80.22,0,0,1-152,35.92A107.43,107.43,0,0,1,620.11,414.76a65.92,65.92,0,0,1-44.81,17.48c-1.73,0-3.45-.07-5.15-.2a66.25,66.25,0,0,1-97,67.08,66.21,66.21,0,0,1-114.88,32.53,122.5,122.5,0,0,1-39.65,32.89,71.18,71.18,0,0,1,13.61,29.56,102.11,102.11,0,1,1,1,195.88,71.35,71.35,0,1,1-71.29-74.2h.46a102.91,102.91,0,0,1-2.08-36.12,71.13,71.13,0,0,1-48.51-20.91A89.69,89.69,0,0,1,65,589.74,111.36,111.36,0,0,1,5.18,572.22,506.14,506.14,0,0,1,3.58,439.9h0A496.55,496.55,0,0,1,43.4,296q2.41-5.42,5-10.77a498.71,498.71,0,0,1,36.76-64.34q9.18-13.62,19.22-26.58a502.16,502.16,0,0,1,98-96.07,85.23,85.23,0,0,1,18.11,82,132.5,132.5,0,0,1,25.86,12.13,138,138,0,1,1,126.91,213,120.37,120.37,0,0,1,7.64,22,66.36,66.36,0,0,1,58.34,2.15,66.23,66.23,0,0,1,65.25-54.92c1.73,0,3.45.07,5.15.2a68.16,68.16,0,0,1-.57-8.75,65.85,65.85,0,0,1,9.55-34.26,107.42,107.42,0,1,1,190.2,39,107.42,107.42,0,0,1,103.56,87.64,80.25,80.25,0,0,1,97.43,78.35Z"/><path class="cls-3" d="M310.86,306.88a133.9,133.9,0,0,1-134,134q-3,0-6-.14A133.86,133.86,0,0,1,43,306.88c0-3.68.15-7.33.44-10.93q2.41-5.42,5-10.77a498.71,498.71,0,0,1,36.76-64.34q9.18-13.62,19.22-26.58A134,134,0,0,1,310.86,306.88Z"/><path class="cls-4" d="M244.39,589.59A89.7,89.7,0,0,1,65,589.74v-.15a89.71,89.71,0,0,1,83.38-89.48c2.09-.15,4.19-.22,6.32-.22a89.7,89.7,0,0,1,88.79,76.94A91,91,0,0,1,244.39,589.59Z"/><path class="cls-5" d="M333.64,608.35a71.35,71.35,0,0,1-71.35,71.35c-.67,0-1.33,0-2,0a71.33,71.33,0,1,1,71.92-85.57A72,72,0,0,1,333.64,608.35Z"/><path class="cls-6" d="M177.2,477.87a111.81,111.81,0,0,1-2.64,24.23,110.44,110.44,0,0,1-9.93,27.33,111.85,111.85,0,0,1-99.31,60.31H65A111.36,111.36,0,0,1,5.18,572.22,506.14,506.14,0,0,1,3.58,439.9h0a495.9,495.9,0,0,1,11.43-62,111.11,111.11,0,0,1,41.83-11.61Q61,366,65.32,366A111.8,111.8,0,0,1,177.2,477.87Z"/><path class="cls-7" d="M224.25,155.13A85.08,85.08,0,0,1,85.13,220.84q9.18-13.62,19.22-26.58a502.16,502.16,0,0,1,98-96.07A84.76,84.76,0,0,1,224.25,155.13Z"/><path class="cls-8" d="M139.51,370.62a86.09,86.09,0,0,1-2.65,21.25,85.65,85.65,0,0,1-133.28,48h0A496.55,496.55,0,0,1,43.4,296q2.41-5.42,5-10.77,2.75-.18,5.52-.18A85.62,85.62,0,0,1,139.51,370.62Z"/><path class="cls-9" d="M500,267.78A138,138,0,0,1,373.27,405.35q-5.59.47-11.3.46a138,138,0,1,1,138-138Z"/><path class="cls-10" d="M384.35,456.23a121.55,121.55,0,1,1-3.44-28.89A121.5,121.5,0,0,1,384.35,456.23Z"/><path class="cls-11" d="M333.27,787.14c0,1,0,1.9-.06,2.84a71.35,71.35,0,1,1-71.29-74.2h.46A71.34,71.34,0,0,1,333.27,787.14Z"/><path class="cls-12" d="M463.79,691.89A102.17,102.17,0,1,1,361.68,589.78,102.11,102.11,0,0,1,463.79,691.89Z"/><path class="cls-13" d="M730.4,306.23A107.41,107.41,0,0,1,623,413.64c-.56,0-1.12,0-1.67,0a2.17,2.17,0,0,1-.36,0A107.41,107.41,0,1,1,730.4,306.23Z"/><path class="cls-14" d="M814.21,478.18a107.41,107.41,0,1,1-194.1-63.42c.27-.39.55-.77.85-1.15a107.5,107.5,0,0,1,85.84-42.85c.68,0,1.36,0,2,0A107.34,107.34,0,0,1,814.21,478.18Z"/><path class="cls-15" d="M894,318.3a64.3,64.3,0,1,1-64.3-64.3A64.3,64.3,0,0,1,894,318.3Z"/><path class="cls-16" d="M909.82,536.78a80.25,80.25,0,1,1-80.22-80.21A80.21,80.21,0,0,1,909.82,536.78Z"/><path class="cls-17" d="M751.22,654.53a64.3,64.3,0,1,1-64.3-64.29A64.3,64.3,0,0,1,751.22,654.53Z"/><path class="cls-18" d="M570.72,440.78a66.22,66.22,0,1,1-66.22-66.21c1.73,0,3.45.07,5.15.2a66.13,66.13,0,0,1,61.07,66Z"/><path class="cls-19" d="M474.1,487.83a66.16,66.16,0,0,1-66.21,66.22,66.23,66.23,0,1,1,66.21-66.22Z"/><path class="cls-20" d="M641.52,366a66,66,0,0,1-20.2,47.6c-.4.39-.8.77-1.21,1.14a65.92,65.92,0,0,1-44.81,17.48c-1.73,0-3.45-.07-5.15-.2a66.25,66.25,0,0,1-60.5-57.27,68.16,68.16,0,0,1-.57-8.75,66.22,66.22,0,0,1,132.44,0Z"/><path class="cls-21" d="M575.74,821.14A102.17,102.17,0,1,1,473.63,719,102.11,102.11,0,0,1,575.74,821.14Z"/></g></g></svg>