<svg xmlns="http://www.w3.org/2000/svg" viewBox="0 0 144 144"><defs><style>.cls-1{fill:#fff;}</style></defs><g id="Layer_2" data-name="Layer 2"><g id="Layer_1-2" data-name="Layer 1"><path class="cls-1" d="M133.37,0H10.63A10.63,10.63,0,0,0,0,10.63V133.37A10.63,10.63,0,0,0,10.63,144H133.37A10.63,10.63,0,0,0,144,133.37V10.63A10.63,10.63,0,0,0,133.37,0ZM43,123H21V54H43ZM32.13,44.29A12.25,12.25,0,0,1,19.64,31.87,12.27,12.27,0,0,1,32.13,19.43,12.27,12.27,0,0,1,44.61,31.87,12.25,12.25,0,0,1,32.13,44.29ZM123,123H101V85.44c0-11.09-4.81-14.5-11-14.5-6.56,0-13,4.83-13,14.77V123H56V54H77V64h.28c2.09-4.22,9.41-11.41,20.58-11.41,12.08,0,25.14,7.13,25.14,28.05Z"/></g></g></svg>